<?xml version="1.0" encoding="UTF-8" standalone="no"?>
<!-- Created with Inkscape (http://www.inkscape.org/) -->

<svg
   xmlns:dc="http://purl.org/dc/elements/1.1/"
   xmlns:cc="http://creativecommons.org/ns#"
   xmlns:rdf="http://www.w3.org/1999/02/22-rdf-syntax-ns#"
   xmlns:svg="http://www.w3.org/2000/svg"
   xmlns="http://www.w3.org/2000/svg"
   xmlns:sodipodi="http://sodipodi.sourceforge.net/DTD/sodipodi-0.dtd"
   xmlns:inkscape="http://www.inkscape.org/namespaces/inkscape"
   width="210"
   height="49"
   viewBox="0 0 55.562498 12.964584"
   version="1.1"
   id="svg8"
   inkscape:version="0.92.3 (2405546, 2018-03-11)"
   sodipodi:docname="frakkass logo.svg">
  <defs
     id="defs2" />
  <sodipodi:namedview
     id="base"
     pagecolor="#ffffff"
     bordercolor="#666666"
     borderopacity="1.0"
     inkscape:pageopacity="0.0"
     inkscape:pageshadow="2"
     inkscape:zoom="15.839192"
     inkscape:cx="40.113112"
     inkscape:cy="25.467635"
     inkscape:document-units="mm"
     inkscape:current-layer="layer1"
     showgrid="false"
     units="px"
     width="210px"
     inkscape:window-width="1920"
     inkscape:window-height="1016"
     inkscape:window-x="1920"
     inkscape:window-y="27"
     inkscape:window-maximized="1" />
  <metadata
     id="metadata5">
    <rdf:RDF>
      <cc:Work
         rdf:about="">
        <dc:format>image/svg+xml</dc:format>
        <dc:type
           rdf:resource="http://purl.org/dc/dcmitype/StillImage" />
        <dc:title></dc:title>
      </cc:Work>
    </rdf:RDF>
  </metadata>
  <g
     inkscape:label="Calque 1"
     inkscape:groupmode="layer"
     id="layer1"
     transform="translate(0,-284.03542)">
    <g
       aria-label="Frakkass"
       style="font-style:normal;font-variant:normal;font-weight:normal;font-stretch:normal;font-size:10.58333302px;line-height:1.25;font-family:'Melon hunter';-inkscape-font-specification:'Melon hunter';letter-spacing:0px;word-spacing:0px;fill:#000000;fill-opacity:1;stroke:#fdfdfd;stroke-width:0.238125;stroke-opacity:1;stroke-miterlimit:4;stroke-dasharray:none;stroke-linejoin:round;stroke-dashoffset:0;paint-order:markers stroke fill"
       id="text817">
      <path
         d="m 11.759989,289.58665 q 0,-0.10583 0.05292,-0.17992 0.0635,-0.0741 0.148167,-0.0741 0.07408,0 0.137583,0.0635 0.07408,0.0741 0.07408,0.17992 v 0.11641 h 0.381 q 0.6985,0 1.693333,0.0635 0.3175,0.0212 0.370417,0.0741 0.0635,0.0635 0.0635,0.13758 0,0.14817 -0.15875,0.20108 h -0.04233 q -0.03175,0.0106 -0.0635,0.0106 -0.08467,0 -0.3175,-0.0212 -0.613833,-0.0635 -1.80975,-0.0635 h -0.116417 q -0.01058,0.46567 -0.02117,1.02658 -0.01058,0.71967 -0.04233,1.64042 l -0.01058,0.62442 h 0.232833 q 0.370417,0 0.4445,0.10583 0.03175,0.0423 0.03175,0.10583 0,0.0952 -0.116416,0.21167 l -0.296334,-0.0106 -0.296333,-0.0212 v 0.23283 q 0,0.0529 0,0.21167 0.01058,0.14817 0.02117,0.381 0.01058,0.22225 0.01058,0.39158 l 0.02117,0.74084 q -0.105834,0.10583 -0.201084,0.10583 -0.0635,0 -0.127,-0.0635 l -0.0635,-0.0529 -0.03175,-0.4445 q -0.02117,-0.48683 -0.02117,-0.94191 0,-0.42334 -0.02117,-0.49742 -0.02117,-0.0847 -0.127,-0.0847 -0.179917,0 -0.179917,-0.1905 0,-0.0741 0.05292,-0.13758 0.0635,-0.0635 0.15875,-0.0635 l 0.105833,-0.0106 0.02117,-0.77259 q 0.01058,-0.23283 0.02117,-0.8255 0.01058,-0.59266 0.01058,-0.80433 l 0.01058,-0.86783 h -0.232833 q -0.22225,0 -0.296333,-0.0635 -0.169334,-0.127 -0.01058,-0.28575 0.05292,-0.0529 0.296334,-0.0635 h 0.243416 z"
         style="stroke-width:0.238125;stroke:#fdfdfd;stroke-opacity:1;stroke-miterlimit:4;stroke-dasharray:none;stroke-linejoin:round;stroke-dashoffset:0;paint-order:markers stroke fill"
         id="path863" />
      <path
         d="m 15.891292,293.14265 q 0.0635,-0.0317 0.105834,-0.0317 0.179916,0 0.232833,0.61383 l 0.02117,0.26459 0.09525,-0.13759 q 0.370416,-0.5715 1.195916,-0.5715 0.243417,0 0.306917,0.0529 0.148167,0.127 0.02117,0.27517 -0.0635,0.0741 -0.28575,0.0741 -0.370417,0 -0.550334,0.0847 -0.328083,0.15875 -0.465666,0.55033 -0.127,0.381 -0.1905,1.0795 -0.02117,0.26458 -0.1905,0.26458 -0.05292,0 -0.127,-0.0317 -0.0635,-0.0423 -0.07408,-0.0847 -0.05292,-0.16934 -0.09525,-0.8255 -0.04233,-0.59267 -0.08467,-1.21709 v -0.16933 q 0,-0.13758 0.08467,-0.1905 z"
         style="stroke-width:0.238125;stroke:#fdfdfd;stroke-opacity:1;stroke-miterlimit:4;stroke-dasharray:none;stroke-linejoin:round;stroke-dashoffset:0;paint-order:markers stroke fill"
         id="path865" />
      <path
         d="m 18.803197,294.85715 q 0,0.24342 0.148167,0.42333 0.15875,0.16934 0.370416,0.16934 0.28575,0 0.5715,-0.28575 0.28575,-0.28575 0.592667,-0.889 0.137583,-0.27517 0.211667,-0.35984 0.07408,-0.0847 0.169333,-0.0847 0.116417,0 0.15875,0.0635 0.05292,0.0635 0.05292,0.254 0,0.15875 -0.01058,0.27516 -0.01058,0.11642 -0.01058,0.3175 0,0.53975 0.296333,0.62442 0.148167,0.0529 0.148167,0.1905 0,0.0529 -0.05292,0.127 -0.0635,0.0741 -0.148166,0.0741 -0.09525,0 -0.201084,-0.0635 -0.370416,-0.17991 -0.4445,-0.64558 l -0.02117,-0.15875 -0.148167,0.20108 q -0.4445,0.62442 -0.9525,0.75142 -0.127,0.0212 -0.201083,0.0212 -0.359834,0 -0.645584,-0.254 -0.275166,-0.26459 -0.296333,-0.64559 v -0.0953 q 0,-0.60325 0.582083,-1.00541 0.53975,-0.35984 1.30175,-0.35984 0.169334,0 0.232834,0.0423 0.0635,0.0423 0.0635,0.16933 0,0.127 -0.0635,0.16933 -0.05292,0.0317 -0.243417,0.0317 -0.433917,0 -0.772583,0.13759 -0.66675,0.26458 -0.687917,0.80433 z"
         style="stroke-width:0.238125;stroke:#fdfdfd;stroke-opacity:1;stroke-miterlimit:4;stroke-dasharray:none;stroke-linejoin:round;stroke-dashoffset:0;paint-order:markers stroke fill"
         id="path867" />
      <path
         d="m 22.627915,289.5549 q 0.03175,-0.0741 0.179916,-0.0741 0.09525,0 0.137584,0.0423 0.03175,0.0317 0.05292,0.15875 0.02117,0.127 0.02117,2.07433 0,1.94734 0.02117,1.98967 h 0.01058 q 0.116417,0 0.582083,-0.4445 0.254,-0.24342 0.338667,-0.24342 0.1905,0 0.1905,0.17992 0,0.0317 -0.02117,0.0952 -0.04233,0.0953 -0.328083,0.35983 -0.28575,0.26459 -0.47625,0.381 -0.0635,0.0423 -0.0635,0.0635 0,0.127 0.582083,0.73025 0.41275,0.41275 0.455084,0.49742 0.04233,0.0529 0.04233,0.13758 0,0.17992 -0.1905,0.17992 -0.07408,0 -0.127,-0.0318 -0.04233,-0.0423 -0.232833,-0.24342 -0.582084,-0.59266 -0.687917,-0.74083 -0.03175,-0.0529 -0.05292,-0.0529 -0.04233,0 -0.04233,0.28575 v 0.254 0.508 q -0.105833,0.10584 -0.201083,0.10584 -0.07408,0 -0.127,-0.0529 l -0.05292,-0.0529 -0.02117,-2.05316 q -0.01058,-1.3335 -0.01058,-2.921 0,-1.10067 0.02117,-1.13242 z"
         style="stroke-width:0.238125;stroke:#fdfdfd;stroke-opacity:1;stroke-miterlimit:4;stroke-dasharray:none;stroke-linejoin:round;stroke-dashoffset:0;paint-order:markers stroke fill"
         id="path869" />
      <path
         d="m 25.480454,289.5549 q 0.03175,-0.0741 0.179916,-0.0741 0.09525,0 0.137584,0.0423 0.03175,0.0317 0.05292,0.15875 0.02117,0.127 0.02117,2.07433 0,1.94734 0.02117,1.98967 h 0.01058 q 0.116417,0 0.582083,-0.4445 0.254,-0.24342 0.338667,-0.24342 0.1905,0 0.1905,0.17992 0,0.0317 -0.02117,0.0952 -0.04233,0.0953 -0.328083,0.35983 -0.28575,0.26459 -0.47625,0.381 -0.0635,0.0423 -0.0635,0.0635 0,0.127 0.582083,0.73025 0.41275,0.41275 0.455084,0.49742 0.04233,0.0529 0.04233,0.13758 0,0.17992 -0.1905,0.17992 -0.07408,0 -0.127,-0.0318 -0.04233,-0.0423 -0.232833,-0.24342 -0.582084,-0.59266 -0.687917,-0.74083 -0.03175,-0.0529 -0.05292,-0.0529 -0.04233,0 -0.04233,0.28575 v 0.254 0.508 q -0.105833,0.10584 -0.201083,0.10584 -0.07408,0 -0.127,-0.0529 l -0.05292,-0.0529 -0.02117,-2.05316 q -0.01058,-1.3335 -0.01058,-2.921 0,-1.10067 0.02117,-1.13242 z"
         style="stroke-width:0.238125;stroke:#fdfdfd;stroke-opacity:1;stroke-miterlimit:4;stroke-dasharray:none;stroke-linejoin:round;stroke-dashoffset:0;paint-order:markers stroke fill"
         id="path871" />
      <path
         d="m 28.745742,294.85715 q 0,0.24342 0.148167,0.42333 0.15875,0.16934 0.370416,0.16934 0.28575,0 0.5715,-0.28575 0.28575,-0.28575 0.592667,-0.889 0.137583,-0.27517 0.211666,-0.35984 0.07408,-0.0847 0.169334,-0.0847 0.116416,0 0.15875,0.0635 0.05292,0.0635 0.05292,0.254 0,0.15875 -0.01058,0.27516 -0.01058,0.11642 -0.01058,0.3175 0,0.53975 0.296333,0.62442 0.148167,0.0529 0.148167,0.1905 0,0.0529 -0.05292,0.127 -0.0635,0.0741 -0.148167,0.0741 -0.09525,0 -0.201083,-0.0635 -0.370417,-0.17991 -0.4445,-0.64558 l -0.02117,-0.15875 -0.148166,0.20108 q -0.4445,0.62442 -0.9525,0.75142 -0.127,0.0212 -0.201083,0.0212 -0.359834,0 -0.645584,-0.254 -0.275166,-0.26459 -0.296333,-0.64559 v -0.0953 q 0,-0.60325 0.582083,-1.00541 0.53975,-0.35984 1.30175,-0.35984 0.169333,0 0.232833,0.0423 0.0635,0.0423 0.0635,0.16933 0,0.127 -0.0635,0.16933 -0.05292,0.0317 -0.243416,0.0317 -0.433917,0 -0.772583,0.13759 -0.66675,0.26458 -0.687917,0.80433 z"
         style="stroke-width:0.238125;stroke:#fdfdfd;stroke-opacity:1;stroke-miterlimit:4;stroke-dasharray:none;stroke-linejoin:round;stroke-dashoffset:0;paint-order:markers stroke fill"
         id="path873" />
      <path
         d="m 33.279544,293.02623 q 0.105833,-0.0212 0.423333,-0.0212 0.6985,0.0106 0.6985,0.30691 0,0.0529 -0.0635,0.11642 -0.05292,0.0529 -0.127,0.0529 -0.03175,0 -0.3175,-0.0529 -0.09525,-0.0212 -0.264583,-0.0212 -0.381,0 -0.560917,0.16934 -0.07408,0.0635 -0.0635,0.17991 0.02117,0.11642 0.05292,0.16934 0.04233,0.0635 0.179917,0.127 0.148166,0.0529 0.28575,0.0953 0.137583,0.0317 0.34925,0.0847 0.211666,0.0423 0.28575,0.0635 0.709083,0.17992 0.709083,0.83609 0,0.51858 -0.53975,0.68791 -0.137583,0.0529 -0.889,0.0529 -0.254,0 -0.3175,-0.0106 -0.264583,-0.0317 -0.264583,-0.21167 0,-0.0741 0.07408,-0.14817 0.05292,-0.0529 0.07408,-0.0529 0.03175,-0.0106 0.179917,0 0.3175,0.0212 0.497417,0.0212 0.687916,0 0.762,-0.21166 0.03175,-0.0635 0.01058,-0.20109 -0.04233,-0.30691 -0.635,-0.42333 -0.899583,-0.15875 -1.11125,-0.508 -0.116417,-0.20108 -0.116417,-0.40217 0,-0.15875 0.0635,-0.28575 0.0635,-0.13758 0.243417,-0.254 0.1905,-0.11641 0.381,-0.15875 z"
         style="stroke-width:0.238125;stroke:#fdfdfd;stroke-opacity:1;stroke-miterlimit:4;stroke-dasharray:none;stroke-linejoin:round;stroke-dashoffset:0;paint-order:markers stroke fill"
         id="path875" />
      <path
         d="m 36.690188,293.02623 q 0.105834,-0.0212 0.423334,-0.0212 0.6985,0.0106 0.6985,0.30691 0,0.0529 -0.0635,0.11642 -0.05292,0.0529 -0.127,0.0529 -0.03175,0 -0.3175,-0.0529 -0.09525,-0.0212 -0.264584,-0.0212 -0.381,0 -0.560916,0.16934 -0.07408,0.0635 -0.0635,0.17991 0.02117,0.11642 0.05292,0.16934 0.04233,0.0635 0.179917,0.127 0.148167,0.0529 0.28575,0.0953 0.137583,0.0317 0.34925,0.0847 0.211667,0.0423 0.28575,0.0635 0.709083,0.17992 0.709083,0.83609 0,0.51858 -0.53975,0.68791 -0.137583,0.0529 -0.889,0.0529 -0.254,0 -0.3175,-0.0106 -0.264583,-0.0317 -0.264583,-0.21167 0,-0.0741 0.07408,-0.14817 0.05292,-0.0529 0.07408,-0.0529 0.03175,-0.0106 0.179916,0 0.3175,0.0212 0.497417,0.0212 0.687917,0 0.762,-0.21166 0.03175,-0.0635 0.01058,-0.20109 -0.04233,-0.30691 -0.635,-0.42333 -0.899583,-0.15875 -1.11125,-0.508 -0.116416,-0.20108 -0.116416,-0.40217 0,-0.15875 0.0635,-0.28575 0.0635,-0.13758 0.243416,-0.254 0.1905,-0.11641 0.381,-0.15875 z"
         style="stroke-width:0.238125;stroke:#fdfdfd;stroke-opacity:1;stroke-miterlimit:4;stroke-dasharray:none;stroke-linejoin:round;stroke-dashoffset:0;paint-order:markers stroke fill"
         id="path877" />
    </g>
    <path
       style="fill:#ff0000;stroke:#fdfdfd;stroke-width:0.15187083;stroke-linecap:butt;stroke-linejoin:miter;stroke-opacity:1;stroke-miterlimit:4;stroke-dasharray:none;paint-order:markers stroke fill"
       d="m 3.0733428,285.92212 0.6651068,1.06071 0.6032939,0.82829 0.6799417,0.86043 0.6057666,0.68736 0.5884588,0.59588 0.3634597,0.35357 0.5241732,0.44505 0.5538437,0.4228 0.2892844,0.22006 0.5439537,0.35357 0.4203271,0.23488 0.37335,0.19286 -0.148351,0.0816 c 0,0 -0.170603,0.11868 -0.175548,0.12858 -0.0049,0.01 -0.138461,0.16318 -0.138461,0.16318 l -0.098901,0.18297 -0.066758,0.21758 -0.017309,0.0989 -0.00246,0.15824 0.00246,0.33132 -0.1409334,0.0346 -0.1706031,0.0717 -0.175549,0.0989 -0.1829661,0.14094 -0.1755486,0.23242 -0.061813,0.20521 -0.00246,0.18544 0.022254,0.24478 0.074175,0.24231 0.173076,0.37088 0.2002737,0.30659 0.4129103,0.45 c 0,0 0.3065922,0.24972 0.2942302,0.24972 -0.01236,0 -0.4376362,-0.0692 -0.4376362,-0.0692 L 7.7291053,296.12867 7.0615262,295.9284 6.6313083,295.77016 6.1738929,295.55999 c 0,0 -0.4054928,-0.21016 -0.4203278,-0.22747 -0.014833,-0.0173 -0.3313171,-0.21016 -0.3313171,-0.21016 L 5.0563158,294.85533 4.7670314,294.59571 4.5074173,294.34352 4.2156604,293.98253 3.9090684,293.52758 3.7434098,293.2111 3.5826963,292.80808 3.461543,292.41495 3.382422,292.05644 3.328027,291.646 l -0.02967,-0.35852 0.00989,-0.29423 0.012363,-0.27939 0.086538,0.13104 0.2076913,0.23242 0.234889,0.23489 0.2967019,0.19533 0.2917569,0.1261 0.2126364,0.0668 0.098901,-0.0124 -0.2447791,-0.25714 -0.3510972,-0.40302 -0.3684047,-0.51923 -0.2744493,-0.42775 -0.1854387,-0.35851 -0.1879112,-0.49945 -0.1112632,-0.43022 -0.054395,-0.35851 -0.017308,-0.29918 0.00742,-0.11868 0.1607136,0.30412 0.1854387,0.29176 0.2497241,0.32884 0.2793943,0.29423 0.2027462,0.18791 0.3263721,0.23984 0.2695043,0.16319 0.3659323,0.16813 -0.7491723,-0.94698 -0.3832399,-0.55137 -0.3288447,-0.56373 -0.2200539,-0.50687 c 0,0 -0.1829662,-0.5217 -0.1829662,-0.53653 0,-0.0148 -0.064285,-0.42775 -0.064285,-0.42775 l -0.012363,-0.34121 z"
       id="path832"
       inkscape:connector-curvature="0" />
    <path
       style="fill:#ff0000;stroke:#fdfdfd;stroke-width:0.15187083;stroke-linecap:butt;stroke-linejoin:miter;stroke-opacity:1;stroke-miterlimit:4;stroke-dasharray:none;paint-order:markers stroke fill"
       d="m 9.4870494,292.21467 -0.185439,0.0742 -0.148351,0.10137 -0.143406,0.13104 -0.118681,0.16813 -0.0717,0.17308 -0.051923,0.17307 -0.014833,0.14341 -0.00246,0.33873 0.180494,-0.0124 0.370878,-0.094 0.239833,-0.0668 0.116209,-0.0124 0.108791,0.01 0.11868,0.0519 0.09643,0.0717 0.1186806,0.11373 0.0989,0.15083 0.09395,0.18297 0.06676,0.19532 0.03956,0.12363 0.247252,-0.21758 0.190383,-0.22253 0.05192,-0.0915 0.01483,-0.11621 -0.01731,-0.10632 -0.05687,-0.13599 -0.111264,-0.13846 -0.08654,-0.0618 0.01236,-0.12115 -0.01236,-0.094 -0.135988,-0.17555 -0.187911,-0.14835 -0.4920306,-0.23736 z"
       id="path840"
       inkscape:connector-curvature="0" />
    <path
       style="fill:#ffffff;stroke:#000000;stroke-width:0.01958133px;stroke-linecap:butt;stroke-linejoin:miter;stroke-opacity:1"
       d="m 10.246111,292.88225 -0.04451,0.005 -0.01483,0.0395 c 0,0 0.01236,0.0321 0.01236,0.0445 0,0.0124 0.02225,0.047 0.02225,0.047 l 0.03956,0.0494 0.06923,0.007 0.09643,-0.0297 -0.111263,-0.11373 z"
       id="path838"
       inkscape:connector-curvature="0" />
    <path
       style="fill:#ff0000;stroke:#fdfdfd;stroke-width:0.15187083;stroke-linecap:butt;stroke-linejoin:miter;stroke-opacity:1;stroke-miterlimit:4;stroke-dasharray:none;paint-order:markers stroke fill"
       d="m 9.3775694,291.65943 -0.454566,-0.2098 -0.5314935,-0.30421 -0.4930298,-0.34617 -0.3461697,-0.25176 -0.4440764,-0.39862 -0.3007136,-0.30072 -0.2517596,-0.25875 -0.3741432,-0.47205 -0.3391765,-0.47904 -0.3042099,-0.54898 -0.2237867,-0.53149 -0.18882,-0.49303 -0.1573501,-0.74829 0.3881299,0.53499 0.9091329,1.14691 0.3566601,0.45457 0.5105133,0.6189 0.3706464,0.49304 -0.1853232,-0.33918 -0.1293766,-0.38813 -0.08392,-0.32519 -0.048953,-0.38813 -0.034968,-0.43359 0.027973,-0.39512 0.048953,-0.56296 0.1118935,-0.46506 0.1573497,-0.43009 0.1853236,-0.40212 0.2377734,-0.40911 0.2342761,-0.3077 0.2657469,-0.25876 0.1014031,-0.0944 -0.1363697,0.66786 -0.1293767,0.91613 -0.045457,0.44058 -0.038466,0.66437 0.010489,0.81822 0.03147,0.53499 0.066437,0.44058 0.066437,0.36365 0.1188867,0.50002 0.1188867,0.38464 0.17833,0.45107 0.1748339,0.34617 0.265746,0.40561 z"
       id="path842"
       inkscape:connector-curvature="0" />
  </g>
</svg>
