<?xml version="1.0" encoding="UTF-8" standalone="no"?>
<!DOCTYPE svg PUBLIC "-//W3C//DTD SVG 1.1//EN" "http://www.w3.org/Graphics/SVG/1.1/DTD/svg11.dtd">
<svg width="100%" height="100%" viewBox="0 0 1223 665" version="1.1" xmlns="http://www.w3.org/2000/svg" xmlns:xlink="http://www.w3.org/1999/xlink" xml:space="preserve" xmlns:serif="http://www.serif.com/" style="fill-rule:evenodd;clip-rule:evenodd;stroke-linejoin:round;stroke-miterlimit:1.41421;">
    <g id="Plan-de-travail1" serif:id="Plan de travail1" transform="matrix(1,0,0,1,-82.2591,-736.882)">
        <rect x="82.259" y="736.882" width="1222.91" height="664.762" style="fill:none;"/>
        <g transform="matrix(1.14655e-15,18.7246,-18.7246,1.14655e-15,14251.7,-3340.79)">
            <path d="M234.888,731.205C234.871,730.619 234.863,730.179 234.863,729.886C234.863,728.161 235.107,726.672 235.596,725.419C235.954,724.474 236.532,723.522 237.329,722.562C237.915,721.862 238.969,720.841 240.491,719.498C242.013,718.155 243.001,717.085 243.457,716.288C243.913,715.49 244.141,714.619 244.141,713.675C244.141,711.966 243.473,710.465 242.139,709.171C240.804,707.877 239.168,707.23 237.231,707.23C235.36,707.23 233.797,707.816 232.544,708.988C231.291,710.16 230.469,711.991 230.078,714.481L225.561,713.944C225.968,710.607 227.177,708.052 229.187,706.278C231.197,704.504 233.854,703.617 237.158,703.617C240.658,703.617 243.449,704.569 245.532,706.473C247.616,708.377 248.657,710.681 248.657,713.382C248.657,714.945 248.291,716.385 247.559,717.704C246.826,719.022 245.394,720.625 243.262,722.513C241.829,723.783 240.894,724.719 240.454,725.321C240.015,725.923 239.689,726.615 239.478,727.396C239.266,728.177 239.144,729.447 239.111,731.205L234.888,731.205ZM234.619,740.018L234.619,735.013L239.624,735.013L239.624,740.018L234.619,740.018Z" style="fill:rgb(41,94,201);fill-rule:nonzero;"/>
        </g>
        <g transform="matrix(5.55967,0,0,5.55967,-1645.26,-1769.78)">
            <path d="M387.1,527.548C390.262,529.727 393.177,531.319 395.847,532.326L393.845,537.069C390.145,535.734 386.456,533.626 382.779,530.745C378.961,532.877 374.746,533.942 370.132,533.942C365.471,533.942 361.244,532.818 357.45,530.57C353.656,528.321 350.734,525.16 348.685,521.084C346.636,517.009 345.611,512.419 345.611,507.313C345.611,502.231 346.642,497.606 348.703,493.437C350.764,489.268 353.697,486.095 357.503,483.917C361.308,481.739 365.565,480.65 370.273,480.65C375.027,480.65 379.313,481.78 383.13,484.04C386.948,486.3 389.858,489.461 391.86,493.525C393.862,497.588 394.864,502.173 394.864,507.278C394.864,511.517 394.22,515.329 392.932,518.713C391.643,522.097 389.7,525.043 387.1,527.548ZM372.099,518.836C376.034,519.937 379.278,521.576 381.83,523.754C385.835,520.101 387.838,514.609 387.838,507.278C387.838,503.11 387.129,499.468 385.712,496.353C384.295,493.238 382.223,490.82 379.494,489.098C376.766,487.377 373.704,486.516 370.308,486.516C365.226,486.516 361.01,488.255 357.661,491.733C354.312,495.211 352.637,500.405 352.637,507.313C352.637,514.012 354.294,519.152 357.608,522.736C360.922,526.319 365.155,528.111 370.308,528.111C372.743,528.111 375.039,527.654 377.193,526.74C375.062,525.359 372.814,524.375 370.448,523.79L372.099,518.836Z" style="fill:rgb(175,189,248);fill-rule:nonzero;"/>
            <path d="M418.77,533.064L418.77,529.255C416.752,532.185 414.009,533.65 410.543,533.65C409.013,533.65 407.584,533.357 406.258,532.771C404.931,532.185 403.947,531.449 403.304,530.561C402.661,529.674 402.209,528.588 401.949,527.302C401.77,526.44 401.68,525.072 401.68,523.201L401.68,507.136L406.075,507.136L406.075,521.516C406.075,523.811 406.164,525.357 406.343,526.155C406.62,527.31 407.206,528.218 408.101,528.877C408.996,529.536 410.103,529.866 411.422,529.866C412.74,529.866 413.977,529.528 415.132,528.852C416.288,528.177 417.106,527.257 417.586,526.094C418.066,524.93 418.306,523.241 418.306,521.028L418.306,507.136L422.701,507.136L422.701,533.064L418.77,533.064Z" style="fill:rgb(175,189,248);fill-rule:nonzero;"/>
            <path d="M429.61,502.327L429.61,497.273L434.005,497.273L434.005,502.327L429.61,502.327ZM429.61,533.064L429.61,507.136L434.005,507.136L434.005,533.064L429.61,533.064Z" style="fill:rgb(175,189,248);fill-rule:nonzero;"/>
            <path d="M438.375,533.064L438.375,529.499L454.879,510.554C453.007,510.652 451.355,510.701 449.923,510.701L439.351,510.701L439.351,507.136L460.543,507.136L460.543,510.041L446.505,526.497L443.795,529.499C445.764,529.353 447.611,529.28 449.337,529.28L461.324,529.28L461.324,533.064L438.375,533.064Z" style="fill:rgb(175,189,248);fill-rule:nonzero;"/>
            <path d="M463.375,533.064L463.375,529.499L479.879,510.554C478.007,510.652 476.355,510.701 474.923,510.701L464.351,510.701L464.351,507.136L485.543,507.136L485.543,510.041L471.505,526.497L468.795,529.499C470.764,529.353 472.611,529.28 474.337,529.28L486.324,529.28L486.324,533.064L463.375,533.064Z" style="fill:rgb(175,189,248);fill-rule:nonzero;"/>
        </g>
    </g>
</svg>
